# xmcd
#
# Track frame offsets: 
#        150
#        15842
#        35035
#        52292
#        67965
#        84290
#
# Disc length: 1258 seconds
#
# Revision: 2
# Processed by: cddbd v1.5.2PL0 Copyright (c) Steve Scherf et al.
# Submitted via: ExactAudioCopy v0.95b4
#
DISCID=4304e806
DTITLE=Kellogg's Country Music - Driving 'Em Crazy - Volume 1
DYEAR=2001
DGENRE=Country
TTITLE0=Reba McEntire -  I'd Rather Ride Around With You
TTITLE1=Lee Ann Womack - A Little Past Little Rock
TTITLE2=Chely Wright - Shut Up And Drive
TTITLE3=Jessica Andrews - Good Friends To Me
TTITLE4=Alecia Elliott - Say You Will
TTITLE5=Rebecca Lynn Howard - Tennessee In My Windshield
EXTD=
EXTT0=
EXTT1=
EXTT2=
EXTT3=
EXTT4=
EXTT5=
PLAYORDER=
